<svg xmlns="http://www.w3.org/2000/svg" width="900" height="164" viewBox="0 0 900 164" role="img" aria-label="courseforge: from syllabus to a real Canvas course">
  <g shape-rendering="crispEdges" transform="translate(16,5)">
    <rect x="70" y="0" width="14" height="14" fill="#ff8700"/>
    <rect x="56" y="14" width="14" height="14" fill="#ff8700"/>
    <rect x="70" y="14" width="14" height="14" fill="#ff8700"/>
    <rect x="84" y="14" width="14" height="14" fill="#ff8700"/>
    <rect x="42" y="28" width="14" height="14" fill="#ff8700"/>
    <rect x="56" y="28" width="14" height="14" fill="#ff8700"/>
    <rect x="70" y="28" width="14" height="14" fill="#ff8700"/>
    <rect x="84" y="28" width="14" height="14" fill="#ff8700"/>
    <rect x="42" y="42" width="14" height="14" fill="#ff8700"/>
    <rect x="56" y="42" width="14" height="14" fill="#ffc266"/>
    <rect x="70" y="42" width="14" height="14" fill="#ffc266"/>
    <rect x="84" y="42" width="14" height="14" fill="#ff8700"/>
    <rect x="28" y="56" width="14" height="14" fill="#ff8700"/>
    <rect x="42" y="56" width="14" height="14" fill="#ff8700"/>
    <rect x="56" y="56" width="14" height="14" fill="#ffc266"/>
    <rect x="70" y="56" width="14" height="14" fill="#ffc266"/>
    <rect x="84" y="56" width="14" height="14" fill="#ff8700"/>
    <rect x="98" y="56" width="14" height="14" fill="#ff8700"/>
    <rect x="42" y="70" width="14" height="14" fill="#ff8700"/>
    <rect x="56" y="70" width="14" height="14" fill="#ff8700"/>
    <rect x="70" y="70" width="14" height="14" fill="#ff8700"/>
    <rect x="84" y="70" width="14" height="14" fill="#ff8700"/>
    <rect x="0" y="84" width="14" height="14" fill="#2d3c50"/>
    <rect x="14" y="84" width="14" height="14" fill="#2d3c50"/>
    <rect x="28" y="84" width="14" height="14" fill="#2d3c50"/>
    <rect x="42" y="84" width="14" height="14" fill="#2d3c50"/>
    <rect x="56" y="84" width="14" height="14" fill="#2d3c50"/>
    <rect x="70" y="84" width="14" height="14" fill="#2d3c50"/>
    <rect x="84" y="84" width="14" height="14" fill="#2d3c50"/>
    <rect x="98" y="84" width="14" height="14" fill="#2d3c50"/>
    <rect x="112" y="84" width="14" height="14" fill="#2d3c50"/>
    <rect x="126" y="84" width="14" height="14" fill="#2d3c50"/>
    <rect x="28" y="98" width="14" height="14" fill="#2d3c50"/>
    <rect x="42" y="98" width="14" height="14" fill="#2d3c50"/>
    <rect x="56" y="98" width="14" height="14" fill="#2d3c50"/>
    <rect x="70" y="98" width="14" height="14" fill="#2d3c50"/>
    <rect x="84" y="98" width="14" height="14" fill="#2d3c50"/>
    <rect x="98" y="98" width="14" height="14" fill="#2d3c50"/>
    <rect x="112" y="98" width="14" height="14" fill="#2d3c50"/>
    <rect x="56" y="112" width="14" height="14" fill="#2d3c50"/>
    <rect x="70" y="112" width="14" height="14" fill="#2d3c50"/>
    <rect x="84" y="112" width="14" height="14" fill="#2d3c50"/>
    <rect x="42" y="126" width="14" height="14" fill="#2d3c50"/>
    <rect x="56" y="126" width="14" height="14" fill="#2d3c50"/>
    <rect x="70" y="126" width="14" height="14" fill="#2d3c50"/>
    <rect x="84" y="126" width="14" height="14" fill="#2d3c50"/>
    <rect x="98" y="126" width="14" height="14" fill="#2d3c50"/>
    <rect x="28" y="140" width="14" height="14" fill="#2d3c50"/>
    <rect x="42" y="140" width="14" height="14" fill="#2d3c50"/>
    <rect x="56" y="140" width="14" height="14" fill="#2d3c50"/>
    <rect x="70" y="140" width="14" height="14" fill="#2d3c50"/>
    <rect x="84" y="140" width="14" height="14" fill="#2d3c50"/>
    <rect x="98" y="140" width="14" height="14" fill="#2d3c50"/>
    <rect x="112" y="140" width="14" height="14" fill="#2d3c50"/>
  </g>
  <text x="200" y="70" font-family="ui-monospace, SFMono-Regular, Menlo, Consolas, monospace"
        font-size="46" font-weight="bold" fill="#ff8700">courseforge</text>
  <text x="200" y="104" font-family="ui-monospace, SFMono-Regular, Menlo, Consolas, monospace"
        font-size="18" fill="#808080" font-style="italic">from syllabus to Canvas course, forged by your AI agent</text>
  <text x="200" y="132" font-family="ui-monospace, SFMono-Regular, Menlo, Consolas, monospace"
        font-size="14" fill="#9a9a9a">canvas-lms &#183; .imscc &#183; 20 MCP tools &#183; 3 agent skills</text>
</svg>
